<svg width="48" height="48" version="1.1" xmlns="http://www.w3.org/2000/svg"><path fill="rgb(205,49,163)" stroke="rgb(205,49,163)" stroke-width="1" opacity="0.3568627450980392" d="M 15.5 4 L 16 8 L 48 8.5 L 33 9 L 33 39 L 47.5 39 L 47.5 40 L 32 40 L 32 9 L 16 9 L 16 40 L 0.5 40 L 0.5 39 L 15 39 L 15.5 4 Z "></path><path fill="rgb(205,48,180)" stroke="rgb(205,48,180)" stroke-width="1" opacity="0.996078431372549" d="M 21 9 L 26 9.5 L 26 43 L 21 42.5 L 21 9 Z "></path><path fill="rgb(205,48,185)" stroke="rgb(205,48,185)" stroke-width="1" opacity="0.996078431372549" d="M 18.5 9 L 21 9.5 L 18.5 10 L 18.5 9 Z "></path><path fill="rgb(205,48,178)" stroke="rgb(205,48,178)" stroke-width="1" opacity="0.4823529411764706" d="M 16.5 9 L 17 38.5 L 16 38.5 L 16.5 9 Z "></path><path fill="rgb(205,48,161)" stroke="rgb(205,48,161)" stroke-width="1" opacity="1" d="M 38.5 9 L 42 9.5 L 42 39 L 34 38 L 34 10.5 L 37.5 10 L 38.5 9 Z "></path><path fill="rgb(205,48,155)" stroke="rgb(205,48,155)" stroke-width="1" opacity="1" d="M 42 9 L 47 9.5 L 47 39 L 42 38.5 L 42 9 Z "></path><path fill="rgb(205,48,153)" stroke="rgb(205,48,153)" stroke-width="1" opacity="1" d="M 47.5 9 L 48 38.5 L 47 38.5 L 47.5 9 Z "></path><path fill="rgb(205,48,195)" stroke="rgb(205,48,195)" stroke-width="1" opacity="1" d="M 0 5 L 15 5 L 15 39 L 0 39 L 0 5 Z "></path><path fill="rgb(205,48,185)" stroke="rgb(205,48,185)" stroke-width="1" opacity="1" d="M 17.5 9 L 21 10 L 21 42.5 L 17 43 L 17.5 9 Z "></path><path fill="rgb(205,48,174)" stroke="rgb(205,48,174)" stroke-width="1" opacity="0.996078431372549" d="M 26 9 L 30 9.5 L 28 10 L 28 42.5 L 26 43 L 26 9 Z "></path><path fill="rgb(205,48,173)" stroke="rgb(205,48,173)" stroke-width="1" opacity="1" d="M 30.5 9 L 31 43 L 28 42.5 L 28 10 L 30.5 9 Z "></path><path fill="rgb(205,48,165)" stroke="rgb(205,48,165)" stroke-width="1" opacity="0.984313725490196" d="M 33 9 L 38 9.5 L 34 10 L 34 37.5 L 37.5 38 L 37.5 39 Q 33 39.5 33 38.5 L 33 9 Z "></path><path fill="rgb(205,48,153)" stroke="rgb(205,48,153)" stroke-width="1" opacity="0.6431372549019608" d="M 0.5 4 L 14 4.5 L 0.5 5 L 0.5 4 Z "></path><path fill="rgb(205,48,153)" stroke="rgb(205,48,153)" stroke-width="1" opacity="0.6431372549019608" d="M 31.5 9 L 32 42.5 L 30.5 44 L 17.5 44 Q 15.3 43.3 16 39.5 L 17 39.5 L 17.5 43 L 31 43 L 31.5 9 Z "></path><path fill="rgb(0,0,0)" stroke="rgb(0,0,0)" stroke-width="1" opacity="0" d="M 0 0 L 47.5 0 L 48 0.5 L 48 8 L 16.5 8 L 15.5 4 L 0 4 L 0 0 Z "></path><path fill="rgb(0,0,0)" stroke="rgb(0,0,0)" stroke-width="1" opacity="0" d="M 0 40 L 15.5 40 L 16.5 44 L 32 44 L 32.5 40 L 48 40 L 48 47.5 L 47.5 48 L 0 48 L 0 40 Z "></path></svg>