<svg id="svg" version="1.1" xmlns="http://www.w3.org/2000/svg" xmlns:xlink="http://www.w3.org/1999/xlink" width="400" height="400" viewBox="0, 0, 400,400"><g id="svgg"><path id="path0" d="M184.200 5.219 C 177.863 5.653,171.089 6.408,170.000 6.800 C 169.450 6.999,167.740 7.284,166.200 7.434 C 164.660 7.584,163.310 7.828,163.200 7.976 C 163.090 8.125,161.740 8.446,160.200 8.689 C 156.975 9.198,154.007 9.807,152.000 10.369 C 151.230 10.585,149.520 11.062,148.200 11.430 C 142.777 12.939,137.777 14.527,137.420 14.853 C 137.211 15.044,136.671 15.201,136.220 15.202 C 135.769 15.204,134.917 15.457,134.327 15.765 C 133.737 16.073,132.704 16.445,132.032 16.593 C 131.359 16.741,130.706 17.028,130.581 17.231 C 130.455 17.434,130.084 17.600,129.754 17.600 C 129.425 17.600,128.311 17.970,127.278 18.422 C 126.245 18.874,124.950 19.433,124.400 19.664 C 123.211 20.164,121.557 20.890,119.491 21.820 L 117.982 22.500 119.053 24.350 C 129.327 42.109,147.285 61.838,168.800 79.003 C 170.450 80.320,171.890 81.487,172.000 81.598 C 172.110 81.709,174.000 83.237,176.200 84.994 C 197.808 102.245,211.155 115.651,220.227 129.215 L 223.581 134.231 226.091 134.765 C 228.394 135.255,231.323 136.030,236.000 137.387 C 251.155 141.784,266.800 152.558,276.389 165.200 C 278.766 168.333,283.200 174.724,283.200 175.017 C 283.200 175.110,283.879 176.314,284.709 177.693 C 286.431 180.553,287.852 183.453,289.368 187.200 C 289.947 188.630,290.596 190.113,290.810 190.495 C 291.025 190.877,291.200 191.389,291.200 191.634 C 291.200 191.879,291.457 192.646,291.770 193.340 C 292.084 194.033,292.914 196.490,293.615 198.800 C 294.316 201.110,295.086 203.529,295.325 204.176 L 295.760 205.352 296.294 203.376 C 298.761 194.253,299.516 190.511,301.174 179.200 C 302.458 170.436,302.459 148.779,301.175 140.868 C 299.364 129.705,298.508 125.965,296.121 118.800 C 291.895 106.113,282.674 89.901,272.304 76.926 C 264.156 66.732,249.054 51.958,236.800 42.194 C 235.150 40.879,233.710 39.704,233.600 39.583 C 233.490 39.462,232.230 38.478,230.800 37.396 C 229.370 36.315,227.201 34.613,225.979 33.615 C 224.758 32.617,222.969 31.170,222.005 30.400 C 213.413 23.542,198.006 9.367,194.884 5.448 C 194.321 4.741,191.924 4.689,184.200 5.219 M103.067 125.067 C 102.281 125.852,103.037 170.732,104.013 181.200 C 104.954 191.304,107.746 206.294,109.784 212.184 C 117.191 233.594,132.246 250.942,151.600 260.369 C 155.730 262.380,162.802 265.005,166.800 266.010 C 185.544 270.721,204.604 271.605,222.432 268.588 C 224.505 268.237,227.415 267.749,228.900 267.504 L 231.600 267.058 231.587 250.029 C 231.575 234.178,231.437 231.279,230.427 225.691 C 229.317 219.554,226.378 212.954,223.212 209.489 C 217.895 203.671,212.355 201.893,198.000 201.394 C 180.578 200.789,174.353 194.451,169.525 172.400 C 168.754 168.879,168.680 166.990,168.507 146.700 L 168.321 124.800 135.827 124.800 C 117.956 124.800,103.213 124.920,103.067 125.067 " stroke="none" fill="#fafafa" fill-rule="evenodd"></path><path id="path1" d="M185.400 132.796 C 181.805 133.123,176.242 133.930,171.053 134.877 L 168.306 135.379 168.511 151.989 C 168.733 169.938,168.730 169.914,171.393 180.200 C 175.017 194.204,183.308 201.164,196.400 201.197 C 215.027 201.242,224.029 206.119,228.342 218.499 C 230.081 223.490,230.319 224.485,231.191 230.400 C 231.401 231.830,231.580 240.695,231.587 250.100 C 231.595 261.225,231.740 267.200,232.000 267.200 C 232.241 267.200,232.400 268.867,232.400 271.400 L 232.400 275.600 266.027 275.600 L 299.654 275.600 299.488 250.700 C 299.375 233.791,299.166 224.837,298.835 222.800 C 297.545 214.861,296.112 207.485,295.183 204.000 C 294.402 201.074,292.311 194.548,291.767 193.340 C 291.455 192.646,291.200 191.879,291.200 191.634 C 291.200 191.389,291.025 190.877,290.810 190.495 C 290.596 190.113,289.947 188.630,289.368 187.200 C 287.852 183.453,286.431 180.553,284.709 177.693 C 283.879 176.314,283.200 175.110,283.200 175.017 C 283.200 174.724,278.766 168.333,276.389 165.200 C 265.460 150.791,249.126 140.443,229.700 135.622 C 228.765 135.390,227.325 135.028,226.500 134.818 C 225.675 134.608,224.010 134.330,222.800 134.201 C 221.590 134.071,218.800 133.685,216.600 133.343 C 211.987 132.626,191.267 132.263,185.400 132.796 M104.628 199.067 C 102.891 204.962,102.791 205.330,102.363 207.400 C 97.696 229.967,97.711 257.654,102.401 275.400 C 110.584 306.364,131.741 334.783,168.200 363.782 C 174.224 368.574,175.302 369.445,178.565 372.158 C 181.363 374.485,185.300 377.822,186.167 378.600 C 186.411 378.820,188.229 380.436,190.206 382.192 C 197.598 388.757,203.986 395.015,203.996 395.700 C 204.002 396.129,214.903 396.056,218.000 395.607 C 219.430 395.399,222.220 395.110,224.200 394.965 C 226.180 394.820,227.910 394.528,228.045 394.316 C 228.179 394.105,228.359 393.972,228.445 394.021 C 228.838 394.249,235.600 393.493,235.600 393.222 C 235.600 393.053,236.897 392.794,238.483 392.647 C 240.068 392.500,241.463 392.230,241.583 392.047 C 241.702 391.864,242.945 391.588,244.345 391.433 C 245.745 391.277,247.185 390.989,247.545 390.791 C 247.905 390.594,249.010 390.257,250.000 390.043 C 252.568 389.487,255.269 388.782,256.200 388.424 C 256.640 388.255,259.700 387.237,263.000 386.162 C 266.300 385.087,269.090 384.087,269.201 383.940 C 269.311 383.794,270.076 383.547,270.901 383.392 C 271.725 383.238,272.400 382.951,272.400 382.755 C 272.400 382.560,272.695 382.400,273.056 382.400 C 273.417 382.400,274.452 382.056,275.356 381.637 C 276.260 381.217,277.720 380.575,278.600 380.210 C 282.737 378.494,282.660 379.030,279.500 373.960 C 269.499 357.911,250.443 337.717,231.412 323.000 C 227.969 320.337,217.308 311.805,215.972 310.642 C 215.186 309.959,214.016 308.967,213.372 308.437 C 212.727 307.908,210.850 306.288,209.201 304.837 C 207.552 303.387,205.485 301.570,204.609 300.800 C 202.422 298.877,192.079 288.565,190.368 286.600 C 185.759 281.309,178.000 270.363,178.000 269.154 C 178.000 268.632,177.590 268.373,176.500 268.206 C 175.675 268.080,174.460 267.819,173.800 267.626 C 173.140 267.433,171.880 267.158,171.000 267.014 C 170.120 266.870,168.860 266.591,168.200 266.394 C 167.540 266.197,166.010 265.751,164.800 265.403 C 134.184 256.603,112.748 232.090,106.622 198.875 C 105.903 194.973,105.832 194.980,104.628 199.067 " stroke="none" fill="#fa4484" fill-rule="evenodd"></path><path id="path2" d="M197.260 7.446 C 203.831 14.293,217.065 26.061,227.412 34.258 C 228.285 34.950,230.818 36.930,233.040 38.658 C 255.006 55.740,272.291 74.039,283.613 92.200 C 293.778 108.504,299.147 122.667,301.205 138.600 C 301.433 140.360,301.792 142.790,302.003 144.000 C 302.664 147.778,302.913 162.953,302.424 169.600 C 301.737 178.924,300.976 184.648,299.260 193.400 C 298.766 195.920,296.434 204.822,296.146 205.288 C 296.027 205.479,296.380 207.653,296.930 210.118 C 299.797 222.971,300.461 232.428,300.306 258.200 L 300.200 275.800 266.000 275.800 L 231.800 275.800 231.686 271.688 L 231.572 267.576 229.486 267.842 C 228.339 267.988,227.130 268.244,226.800 268.412 C 226.470 268.579,224.760 268.849,223.000 269.011 C 221.240 269.172,219.405 269.453,218.922 269.634 C 215.487 270.923,186.831 270.854,182.400 269.547 C 181.630 269.320,180.410 269.194,179.689 269.267 L 178.377 269.400 179.871 271.800 C 185.140 280.263,192.745 289.169,202.436 298.221 C 207.052 302.532,215.345 309.669,221.003 314.200 C 223.202 315.960,225.090 317.498,225.200 317.619 C 225.310 317.739,226.570 318.720,228.000 319.798 C 244.795 332.464,262.468 349.740,272.960 363.749 C 276.110 367.955,281.896 376.642,282.214 377.643 C 282.353 378.084,282.588 378.375,282.734 378.291 C 282.880 378.207,283.585 377.888,284.300 377.581 C 285.015 377.275,285.600 376.884,285.600 376.712 C 285.600 376.541,285.867 376.400,286.194 376.400 C 286.812 376.400,291.647 374.018,292.004 373.538 C 292.116 373.387,292.700 373.140,293.301 372.989 C 293.903 372.838,294.304 372.569,294.194 372.390 C 294.083 372.211,294.535 371.946,295.197 371.801 C 295.858 371.655,296.400 371.410,296.400 371.256 C 296.400 371.102,296.895 370.759,297.500 370.496 C 298.761 369.946,302.102 367.999,302.400 367.640 C 302.656 367.332,304.023 366.473,304.800 366.131 C 305.130 365.986,306.056 365.357,306.858 364.734 C 307.659 364.110,308.499 363.600,308.724 363.600 C 308.949 363.600,309.193 363.465,309.267 363.300 C 309.469 362.845,311.910 361.200,312.384 361.200 C 312.613 361.200,312.805 361.065,312.811 360.900 C 312.817 360.735,313.537 360.159,314.411 359.620 C 315.285 359.080,316.000 358.495,316.000 358.320 C 316.000 358.144,316.261 358.000,316.580 358.000 C 316.899 358.000,317.304 357.766,317.480 357.480 C 317.656 357.194,318.430 356.521,319.200 355.986 C 320.827 354.853,322.082 353.822,323.631 352.344 C 324.240 351.763,324.921 351.223,325.143 351.144 C 325.853 350.892,335.037 342.538,338.139 339.323 C 347.120 330.014,350.216 326.629,350.948 325.321 C 351.156 324.949,351.748 324.254,352.263 323.776 C 352.779 323.299,353.200 322.800,353.200 322.668 C 353.200 322.536,353.740 321.875,354.400 321.200 C 355.060 320.525,355.600 319.805,355.600 319.600 C 355.600 319.395,356.095 318.700,356.700 318.054 C 358.324 316.322,359.200 315.098,359.200 314.561 C 359.200 314.300,359.470 313.982,359.800 313.855 C 360.130 313.729,360.400 313.427,360.400 313.184 C 360.400 312.941,360.625 312.492,360.900 312.185 C 362.092 310.856,362.400 310.408,362.400 310.004 C 362.400 309.768,362.652 309.478,362.961 309.360 C 363.269 309.241,363.624 308.842,363.749 308.472 C 364.068 307.532,364.891 306.309,365.600 305.722 C 365.930 305.449,366.052 305.220,365.871 305.213 C 365.690 305.206,365.915 304.726,366.371 304.146 C 366.827 303.566,367.203 302.711,367.206 302.246 C 367.211 301.607,367.298 301.535,367.563 301.953 C 367.820 302.360,367.986 302.174,368.189 301.250 C 368.341 300.559,368.630 300.095,368.833 300.220 C 369.035 300.345,369.200 300.089,369.200 299.652 C 369.200 299.215,369.515 298.542,369.900 298.157 C 370.285 297.772,370.600 297.303,370.600 297.114 C 370.600 296.925,370.870 296.600,371.200 296.392 C 371.733 296.054,371.733 296.011,371.200 296.000 C 370.688 295.990,370.684 295.935,371.170 295.627 C 371.484 295.428,371.804 294.854,371.880 294.350 C 371.957 293.847,372.171 293.337,372.356 293.217 C 372.541 293.098,372.826 292.571,372.990 292.047 C 373.220 291.311,373.367 291.220,373.638 291.647 C 373.887 292.041,373.990 291.885,373.994 291.100 C 373.997 290.495,374.174 290.000,374.387 290.000 C 374.601 290.000,374.671 289.730,374.545 289.400 C 374.418 289.070,374.514 288.800,374.757 288.800 C 375.001 288.800,375.200 288.429,375.200 287.976 C 375.200 287.523,375.378 287.263,375.595 287.397 C 375.822 287.537,375.889 287.377,375.753 287.021 C 375.622 286.679,375.714 286.400,375.957 286.400 C 376.201 286.400,376.403 285.995,376.406 285.500 C 376.411 284.753,376.485 284.702,376.841 285.200 C 377.185 285.681,377.230 285.621,377.071 284.895 C 376.935 284.275,377.113 283.861,377.636 283.581 C 378.056 283.356,378.402 282.773,378.405 282.286 C 378.415 280.802,378.878 279.479,379.204 280.007 C 379.369 280.274,379.618 279.677,379.773 278.640 C 379.925 277.628,380.202 276.800,380.389 276.800 C 380.577 276.800,380.851 276.080,381.000 275.200 C 381.149 274.320,381.426 273.600,381.617 273.600 C 381.808 273.600,382.082 272.970,382.226 272.200 C 382.371 271.430,382.633 270.800,382.809 270.800 C 382.986 270.800,383.251 270.080,383.400 269.200 C 383.549 268.320,383.834 267.600,384.035 267.600 C 384.236 267.600,384.400 267.139,384.400 266.576 C 384.400 265.970,384.569 265.657,384.816 265.810 C 385.086 265.977,385.141 265.704,384.973 265.034 C 384.811 264.388,384.880 264.000,385.157 264.000 C 385.400 264.000,385.600 263.539,385.600 262.976 C 385.600 262.344,385.766 262.055,386.033 262.220 C 386.291 262.380,386.431 262.189,386.381 261.744 C 386.223 260.360,386.876 258.283,387.285 258.868 C 387.536 259.228,387.604 258.973,387.495 258.082 C 387.406 257.358,387.483 256.672,387.667 256.559 C 387.850 256.445,388.000 255.903,388.000 255.353 C 388.000 254.772,388.172 254.459,388.410 254.606 C 388.635 254.745,388.784 254.711,388.741 254.530 C 388.548 253.728,389.332 249.567,389.596 249.994 C 389.758 250.255,390.016 249.193,390.169 247.634 C 390.323 246.076,390.599 244.800,390.784 244.800 C 390.968 244.800,391.245 243.540,391.400 242.000 C 391.555 240.460,391.827 239.200,392.005 239.200 C 392.183 239.200,392.455 237.672,392.611 235.805 C 392.766 233.938,393.035 232.498,393.207 232.605 C 393.380 232.711,393.663 230.684,393.835 228.099 C 394.043 224.999,394.239 223.808,394.413 224.600 C 394.589 225.403,394.749 224.475,394.897 221.800 C 395.018 219.600,395.304 216.630,395.533 215.200 C 396.068 211.842,396.111 188.935,395.588 185.800 C 395.367 184.480,395.075 181.630,394.938 179.466 C 394.802 177.302,394.557 175.745,394.395 176.007 C 394.234 176.269,393.969 174.370,393.808 171.788 C 393.643 169.146,393.374 167.318,393.194 167.610 C 393.011 167.906,392.746 166.336,392.577 163.964 C 392.387 161.278,392.171 160.084,391.969 160.600 C 391.736 161.195,391.633 160.939,391.567 159.600 C 391.518 158.610,391.436 157.620,391.385 157.400 C 391.334 157.180,391.272 156.494,391.246 155.876 C 391.221 155.258,391.043 154.850,390.851 154.968 C 390.487 155.194,390.012 153.011,390.004 151.076 C 390.002 150.430,389.830 150.058,389.600 150.200 C 389.374 150.340,389.174 149.959,389.139 149.324 C 389.106 148.706,389.036 148.020,388.985 147.800 C 388.934 147.580,388.872 146.984,388.846 146.476 C 388.821 145.968,388.643 145.650,388.451 145.769 C 388.258 145.888,387.977 145.048,387.825 143.902 C 387.673 142.757,387.389 141.628,387.195 141.394 C 387.000 141.159,386.744 140.417,386.625 139.744 C 386.433 138.653,386.198 137.969,384.994 135.000 C 384.574 133.966,384.510 133.728,384.450 132.976 C 384.423 132.633,384.240 132.452,384.045 132.572 C 383.849 132.693,383.568 131.980,383.419 130.988 C 383.270 129.996,383.000 129.276,382.819 129.388 C 382.638 129.500,382.368 128.780,382.219 127.788 C 382.070 126.796,381.780 126.089,381.574 126.216 C 381.368 126.343,381.200 126.029,381.200 125.518 C 381.200 125.006,380.840 123.916,380.400 123.096 C 379.960 122.275,379.600 121.332,379.600 121.001 C 379.600 120.671,379.420 120.400,379.200 120.400 C 378.980 120.400,378.800 120.194,378.800 119.942 C 378.800 119.419,376.356 114.099,375.152 112.000 C 374.710 111.230,374.249 110.285,374.128 109.900 C 374.006 109.515,373.762 109.200,373.585 109.200 C 373.408 109.200,373.145 108.660,373.000 108.000 C 372.855 107.340,372.571 106.800,372.368 106.800 C 372.166 106.800,372.000 106.543,372.000 106.229 C 372.000 105.914,371.775 105.417,371.500 105.122 C 371.225 104.828,370.640 103.884,370.200 103.023 C 369.760 102.163,369.220 101.257,369.000 101.010 C 368.780 100.763,368.172 99.760,367.648 98.781 C 366.408 96.462,363.570 92.237,363.138 92.067 C 362.952 91.993,362.800 91.673,362.800 91.354 C 362.800 91.036,362.530 90.671,362.200 90.545 C 361.870 90.418,361.600 90.077,361.600 89.786 C 361.600 89.495,361.374 89.019,361.098 88.729 C 360.822 88.438,359.892 87.165,359.032 85.900 C 358.171 84.635,357.317 83.600,357.134 83.600 C 356.950 83.600,356.800 83.422,356.800 83.203 C 356.800 82.723,354.193 79.261,353.149 78.356 C 352.737 77.999,352.398 77.547,352.395 77.353 C 352.389 76.962,351.819 76.306,342.732 66.237 C 339.920 63.122,335.475 58.720,333.059 56.657 C 331.991 55.746,330.244 54.190,329.177 53.200 C 326.999 51.180,325.176 49.637,323.400 48.312 C 322.740 47.820,321.999 47.233,321.753 47.009 C 320.643 45.994,319.290 44.912,318.000 44.008 C 317.230 43.468,316.381 42.840,316.114 42.613 C 315.170 41.811,314.576 41.384,312.200 39.800 C 310.880 38.920,309.740 38.065,309.667 37.900 C 309.593 37.735,309.273 37.600,308.954 37.600 C 308.636 37.600,308.278 37.346,308.159 37.036 C 308.039 36.726,307.505 36.363,306.971 36.228 C 306.437 36.094,306.000 35.808,306.000 35.592 C 306.000 35.377,305.745 35.200,305.433 35.200 C 305.122 35.200,304.807 35.056,304.733 34.879 C 304.550 34.438,299.802 31.600,299.248 31.600 C 299.001 31.600,298.800 31.432,298.800 31.227 C 298.800 31.022,298.395 30.728,297.900 30.573 C 297.405 30.419,296.910 30.181,296.800 30.046 C 296.213 29.324,277.545 20.000,276.686 20.000 C 276.309 20.000,276.000 19.834,276.000 19.632 C 276.000 19.429,275.448 19.142,274.773 18.994 C 274.098 18.846,273.063 18.473,272.473 18.165 C 271.883 17.857,271.096 17.604,270.724 17.602 C 270.352 17.601,269.945 17.434,269.819 17.231 C 269.694 17.028,269.041 16.741,268.368 16.593 C 267.696 16.445,266.663 16.073,266.073 15.765 C 265.483 15.457,264.631 15.204,264.180 15.202 C 263.729 15.201,263.189 15.046,262.980 14.858 C 261.919 13.905,248.177 10.122,240.400 8.643 C 238.970 8.371,237.530 8.033,237.200 7.891 C 236.870 7.750,235.160 7.438,233.400 7.198 C 219.219 5.266,214.216 4.876,203.060 4.833 L 194.720 4.800 197.260 7.446 M114.400 24.188 C 112.530 25.154,110.790 26.130,110.534 26.356 C 110.278 26.583,109.603 26.884,109.034 27.027 C 108.465 27.170,108.000 27.408,108.000 27.556 C 108.000 27.704,107.505 28.032,106.900 28.287 C 106.295 28.541,104.720 29.397,103.400 30.189 C 102.080 30.982,100.685 31.735,100.300 31.862 C 99.915 31.989,99.600 32.231,99.600 32.400 C 99.600 32.569,99.285 32.812,98.900 32.942 C 98.059 33.224,97.093 33.831,95.144 35.300 C 94.341 35.905,93.486 36.400,93.242 36.400 C 92.999 36.400,92.800 36.577,92.800 36.792 C 92.800 37.008,92.363 37.294,91.829 37.428 C 91.295 37.563,90.761 37.926,90.641 38.236 C 90.522 38.546,90.164 38.800,89.846 38.800 C 89.527 38.800,89.207 38.943,89.133 39.117 C 89.060 39.291,88.325 39.846,87.500 40.350 C 86.675 40.853,86.000 41.431,86.000 41.633 C 86.000 41.835,85.815 42.000,85.590 42.000 C 85.048 42.000,81.200 44.880,81.200 45.285 C 81.200 45.458,81.006 45.600,80.769 45.600 C 80.532 45.600,79.798 46.140,79.138 46.800 C 78.478 47.460,77.748 48.000,77.515 48.000 C 77.282 48.000,76.711 48.405,76.246 48.901 C 75.781 49.397,74.860 50.221,74.200 50.734 C 69.008 54.765,54.281 69.477,50.709 74.200 C 50.210 74.860,49.397 75.781,48.901 76.246 C 48.405 76.711,48.000 77.282,48.000 77.515 C 48.000 77.748,47.460 78.478,46.800 79.138 C 46.140 79.798,45.600 80.532,45.600 80.769 C 45.600 81.006,45.455 81.200,45.277 81.200 C 45.100 81.200,44.091 82.376,43.036 83.813 C 41.981 85.249,40.866 86.677,40.559 86.984 C 40.251 87.291,40.000 87.708,40.000 87.910 C 40.000 88.112,39.685 88.657,39.300 89.120 C 37.793 90.932,37.200 91.777,37.200 92.110 C 37.200 92.301,36.975 92.692,36.700 92.980 C 35.683 94.042,33.353 97.718,32.947 98.900 C 32.815 99.285,32.589 99.600,32.445 99.600 C 32.301 99.600,31.737 100.452,31.192 101.493 C 30.646 102.534,29.975 103.627,29.700 103.921 C 29.425 104.216,29.200 104.714,29.200 105.029 C 29.200 105.343,29.034 105.600,28.832 105.600 C 28.629 105.600,28.345 106.140,28.200 106.800 C 28.055 107.460,27.774 108.000,27.576 108.000 C 27.378 108.000,27.102 108.450,26.964 109.000 C 26.826 109.550,26.572 110.000,26.400 110.000 C 26.228 110.000,25.963 110.493,25.812 111.096 C 25.660 111.699,25.407 112.284,25.250 112.396 C 24.965 112.599,23.128 116.335,21.808 119.400 C 21.428 120.280,20.597 122.094,19.959 123.432 C 19.322 124.769,18.800 126.128,18.800 126.452 C 18.800 126.775,18.648 127.211,18.462 127.420 C 18.276 127.629,17.707 128.970,17.197 130.400 C 16.687 131.830,16.135 133.180,15.971 133.400 C 15.806 133.620,15.540 134.520,15.378 135.400 C 15.217 136.280,14.975 137.090,14.841 137.200 C 14.448 137.523,12.000 145.362,12.000 146.297 C 12.000 146.768,11.830 147.258,11.623 147.386 C 11.416 147.514,11.123 148.469,10.973 149.509 C 10.822 150.549,10.559 151.580,10.387 151.800 C 10.215 152.020,9.945 153.100,9.786 154.200 C 9.628 155.300,9.386 156.380,9.249 156.600 C 9.112 156.820,8.768 158.260,8.485 159.800 C 7.050 167.609,6.712 169.688,6.345 173.000 C 6.125 174.980,5.733 177.320,5.473 178.200 C 4.819 180.414,4.798 221.625,5.451 222.439 C 5.698 222.747,6.030 224.874,6.187 227.164 C 6.344 229.454,6.620 231.614,6.800 231.964 C 6.980 232.314,7.312 233.860,7.538 235.400 C 8.199 239.911,8.822 243.355,9.094 244.000 C 9.328 244.556,9.601 245.685,10.786 251.000 C 11.032 252.100,11.405 253.313,11.616 253.695 C 11.827 254.077,12.000 254.624,12.000 254.911 C 12.000 255.468,14.179 262.465,14.769 263.800 C 14.963 264.240,15.514 265.770,15.993 267.200 C 16.472 268.630,17.007 270.076,17.181 270.413 C 17.356 270.750,17.625 271.605,17.781 272.313 C 17.936 273.021,18.229 273.600,18.432 273.600 C 18.634 273.600,18.800 273.880,18.800 274.222 C 18.800 274.564,19.170 275.689,19.622 276.722 C 20.074 277.755,20.598 278.960,20.788 279.400 C 21.853 281.878,24.998 288.230,25.246 288.404 C 25.406 288.516,25.660 289.101,25.812 289.704 C 25.963 290.307,26.233 290.800,26.412 290.800 C 26.590 290.800,26.855 291.340,27.000 292.000 C 27.145 292.660,27.429 293.200,27.632 293.200 C 27.834 293.200,28.000 293.457,28.000 293.771 C 28.000 294.086,28.225 294.581,28.500 294.871 C 28.775 295.162,29.411 296.242,29.914 297.271 C 30.416 298.300,30.956 299.200,31.114 299.271 C 31.271 299.342,31.760 300.111,32.200 300.979 C 33.284 303.118,38.783 311.367,39.237 311.533 C 39.436 311.607,39.600 311.894,39.600 312.172 C 39.600 312.450,39.957 313.110,40.393 313.639 C 41.528 315.015,41.688 315.233,42.800 316.897 C 43.350 317.721,43.935 318.396,44.100 318.397 C 44.265 318.399,44.400 318.619,44.400 318.887 C 44.400 319.155,44.805 319.741,45.300 320.188 C 45.795 320.636,46.637 321.631,47.170 322.401 C 47.704 323.170,48.379 323.944,48.670 324.120 C 48.962 324.296,49.200 324.632,49.200 324.867 C 49.200 325.101,49.900 325.973,50.756 326.804 C 51.612 327.634,52.477 328.610,52.680 328.971 C 53.230 329.955,59.811 337.009,62.958 339.989 C 64.475 341.425,66.843 343.680,68.220 345.000 C 69.597 346.320,71.117 347.670,71.598 348.000 C 72.078 348.330,73.113 349.199,73.897 349.931 C 74.681 350.663,75.790 351.562,76.361 351.929 C 76.933 352.296,77.728 353.002,78.129 353.498 C 78.530 353.994,79.034 354.400,79.248 354.400 C 79.463 354.400,80.035 354.818,80.519 355.330 C 81.004 355.841,81.715 356.376,82.100 356.517 C 82.485 356.659,82.800 356.948,82.800 357.160 C 82.800 357.373,83.188 357.669,83.662 357.820 C 84.137 357.970,84.922 358.523,85.408 359.047 C 85.894 359.571,86.469 360.000,86.685 360.000 C 86.901 360.000,87.457 360.315,87.920 360.700 C 89.868 362.319,90.591 362.800,91.081 362.800 C 91.367 362.800,91.600 362.967,91.600 363.172 C 91.600 363.591,97.236 367.200,97.891 367.200 C 98.124 367.200,98.418 367.470,98.545 367.800 C 98.671 368.130,99.051 368.400,99.387 368.400 C 99.724 368.400,100.000 368.560,100.000 368.757 C 100.000 368.953,100.450 369.226,101.000 369.364 C 101.550 369.502,102.000 369.778,102.000 369.976 C 102.000 370.174,102.540 370.455,103.200 370.600 C 103.860 370.745,104.400 370.997,104.400 371.161 C 104.400 371.498,107.664 373.200,108.310 373.200 C 108.543 373.200,108.793 373.335,108.867 373.500 C 109.119 374.068,111.928 375.531,121.432 380.045 C 122.769 380.680,124.164 381.200,124.532 381.200 C 124.899 381.200,125.200 381.366,125.200 381.568 C 125.200 381.771,125.752 382.058,126.427 382.206 C 127.102 382.354,128.137 382.727,128.727 383.035 C 129.317 383.343,130.079 383.596,130.420 383.598 C 130.761 383.599,131.211 383.759,131.420 383.954 C 131.850 384.355,139.864 387.089,144.400 388.381 C 146.050 388.851,148.276 389.498,149.346 389.818 C 150.416 390.138,151.711 390.400,152.222 390.400 C 152.734 390.400,153.259 390.572,153.389 390.782 C 153.518 390.991,154.703 391.285,156.021 391.434 C 157.339 391.583,158.506 391.848,158.613 392.021 C 158.721 392.195,160.022 392.463,161.504 392.617 C 162.987 392.771,164.383 393.043,164.607 393.220 C 164.830 393.398,166.630 393.672,168.607 393.829 C 170.583 393.987,172.290 394.239,172.400 394.389 C 173.076 395.313,203.600 396.604,203.600 395.709 C 203.600 395.269,196.759 388.587,191.186 383.583 C 187.232 380.033,185.512 378.540,180.600 374.398 C 179.500 373.470,178.150 372.326,177.599 371.855 C 177.048 371.385,174.440 369.290,171.802 367.200 C 156.719 355.248,144.242 343.853,134.995 333.585 C 130.719 328.837,130.068 328.061,126.783 323.800 C 118.871 313.540,111.310 300.841,107.017 290.600 C 106.648 289.720,106.187 288.640,105.992 288.200 C 103.545 282.662,100.921 271.893,99.169 260.200 C 97.418 248.511,98.559 223.512,101.470 209.800 C 102.669 204.153,104.239 198.201,104.859 196.952 C 105.315 196.032,105.211 194.363,104.238 187.000 C 103.889 184.360,103.424 179.770,103.205 176.800 C 102.721 170.252,102.165 126.992,102.545 125.478 L 102.815 124.400 135.808 124.400 L 168.800 124.400 168.800 129.600 C 168.800 133.497,168.925 134.798,169.300 134.793 C 169.575 134.789,171.060 134.514,172.600 134.182 C 183.364 131.859,202.715 131.244,215.462 132.820 C 219.110 133.270,222.170 133.563,222.262 133.471 C 222.557 133.176,214.809 121.837,213.605 120.800 C 213.477 120.690,212.662 119.700,211.794 118.600 C 209.984 116.307,205.642 111.728,201.000 107.217 C 196.113 102.468,195.685 102.074,190.991 98.000 C 188.583 95.910,185.980 93.634,185.206 92.943 C 184.433 92.251,181.550 89.854,178.800 87.615 C 176.050 85.377,173.433 83.243,172.984 82.873 C 172.535 82.503,171.005 81.307,169.584 80.215 C 168.163 79.124,166.550 77.831,166.000 77.341 C 165.450 76.852,163.560 75.254,161.800 73.790 C 155.541 68.584,139.618 52.951,134.998 47.476 C 127.885 39.046,117.553 24.058,117.919 22.700 C 118.028 22.295,118.219 22.214,114.400 24.188 " stroke="none" fill="#04948b" fill-rule="evenodd"></path><path id="path3" d="M199.400 10.000 C 200.483 11.100,201.460 12.000,201.570 12.000 C 201.680 12.000,200.883 11.100,199.800 10.000 C 198.717 8.900,197.740 8.000,197.630 8.000 C 197.520 8.000,198.317 8.900,199.400 10.000 M263.000 66.000 C 264.083 67.100,265.060 68.000,265.170 68.000 C 265.280 68.000,264.483 67.100,263.400 66.000 C 262.317 64.900,261.340 64.000,261.230 64.000 C 261.120 64.000,261.917 64.900,263.000 66.000 M156.800 69.325 C 156.800 69.394,157.385 69.979,158.100 70.625 L 159.400 71.800 158.225 70.500 C 157.130 69.288,156.800 69.016,156.800 69.325 M201.583 107.700 C 203.241 109.466,203.600 109.784,203.600 109.483 C 203.600 109.419,202.745 108.564,201.700 107.583 L 199.800 105.800 201.583 107.700 M205.400 111.600 C 206.259 112.480,207.052 113.200,207.162 113.200 C 207.272 113.200,206.659 112.480,205.800 111.600 C 204.941 110.720,204.148 110.000,204.038 110.000 C 203.928 110.000,204.541 110.720,205.400 111.600 M102.583 142.200 C 102.583 151.660,102.636 155.473,102.700 150.673 C 102.764 145.873,102.763 138.133,102.699 133.473 C 102.636 128.813,102.583 132.740,102.583 142.200 M184.800 132.419 C 183.810 132.583,185.520 132.623,188.600 132.508 C 191.680 132.393,194.275 132.232,194.367 132.149 C 194.662 131.885,186.661 132.110,184.800 132.419 M202.033 132.148 C 202.125 132.230,204.810 132.393,208.000 132.511 C 211.624 132.646,213.050 132.603,211.800 132.398 C 209.813 132.072,201.715 131.865,202.033 132.148 M177.786 133.217 C 176.458 133.391,174.748 133.721,173.986 133.950 C 172.304 134.457,174.567 134.233,179.600 133.396 C 182.908 132.846,181.606 132.718,177.786 133.217 M217.200 133.404 C 218.850 133.704,220.830 133.941,221.600 133.931 L 223.000 133.912 221.400 133.604 C 220.520 133.434,218.540 133.197,217.000 133.077 L 214.200 132.859 217.200 133.404 M169.600 134.800 L 168.600 135.120 169.600 135.120 C 170.150 135.120,171.050 134.976,171.600 134.800 L 172.600 134.480 171.600 134.480 C 171.050 134.480,170.150 134.624,169.600 134.800 M302.093 146.400 C 302.093 147.170,302.175 147.485,302.276 147.100 C 302.376 146.715,302.376 146.085,302.276 145.700 C 302.175 145.315,302.093 145.630,302.093 146.400 M302.501 153.800 C 302.505 154.680,302.587 154.993,302.683 154.495 C 302.779 153.998,302.775 153.278,302.675 152.895 C 302.575 152.513,302.496 152.920,302.501 153.800 M302.509 165.200 C 302.509 166.190,302.587 166.595,302.682 166.100 C 302.778 165.605,302.778 164.795,302.682 164.300 C 302.587 163.805,302.509 164.210,302.509 165.200 M104.687 197.073 C 104.360 197.627,103.924 200.000,104.149 200.000 C 104.413 200.000,105.235 197.102,105.029 196.896 C 104.947 196.814,104.793 196.894,104.687 197.073 M103.457 201.100 C 102.978 202.800,102.779 204.578,103.131 204.000 C 103.554 203.308,104.130 200.400,103.845 200.400 C 103.740 200.400,103.565 200.715,103.457 201.100 M102.232 206.000 C 101.638 209.073,101.571 209.790,101.933 209.200 C 102.344 208.529,102.957 204.800,102.656 204.800 C 102.550 204.800,102.359 205.340,102.232 206.000 M295.600 205.857 C 295.600 206.072,295.951 207.677,296.380 209.424 C 296.808 211.171,297.329 213.410,297.537 214.400 C 297.744 215.390,297.934 215.775,297.957 215.256 C 297.981 214.737,297.540 212.402,296.977 210.067 C 296.042 206.185,295.600 204.834,295.600 205.857 M101.033 211.800 C 100.883 212.900,100.593 214.541,100.388 215.446 C 100.183 216.352,99.929 218.422,99.823 220.046 L 99.630 223.000 100.010 220.600 C 100.218 219.280,100.682 216.552,101.040 214.537 C 101.398 212.522,101.604 210.632,101.498 210.337 C 101.392 210.042,101.182 210.700,101.033 211.800 M298.279 219.000 C 298.644 222.880,299.215 225.166,298.969 221.761 C 298.856 220.200,298.604 218.400,298.409 217.761 C 298.155 216.931,298.118 217.284,298.279 219.000 M99.050 225.300 C 98.910 226.235,98.719 230.600,98.626 235.000 L 98.458 243.000 98.791 236.200 C 98.973 232.460,99.238 228.095,99.378 226.500 C 99.657 223.329,99.456 222.594,99.050 225.300 M299.519 230.000 C 299.655 232.310,299.774 243.470,299.783 254.800 L 299.800 275.400 266.114 275.502 L 232.428 275.605 232.314 271.502 C 232.201 267.446,232.189 267.399,231.200 267.326 C 230.650 267.286,230.509 267.343,230.886 267.453 C 231.466 267.622,231.590 268.283,231.686 271.727 L 231.800 275.800 266.000 275.800 L 300.200 275.800 300.150 252.400 C 300.119 237.729,299.946 228.403,299.686 227.400 C 299.361 226.145,299.325 226.705,299.519 230.000 M98.635 250.400 C 98.734 254.470,98.976 258.520,99.174 259.400 C 99.455 260.650,99.489 260.344,99.329 258.000 C 99.216 256.350,98.974 252.300,98.790 249.000 L 98.456 243.000 98.635 250.400 M99.815 264.000 C 99.922 265.430,100.177 267.140,100.383 267.800 C 100.833 269.237,100.514 265.626,99.960 263.000 C 99.691 261.726,99.661 261.929,99.815 264.000 M178.000 269.206 C 178.000 269.641,180.801 274.000,181.080 274.000 C 181.262 274.000,181.178 273.850,179.522 271.223 C 178.681 269.890,178.526 269.367,178.901 269.129 C 179.256 268.903,179.198 268.810,178.700 268.806 C 178.315 268.803,178.000 268.983,178.000 269.206 M100.868 270.200 C 100.862 270.860,101.011 271.760,101.200 272.200 C 101.670 273.294,101.670 271.467,101.200 270.000 C 100.888 269.025,100.879 269.030,100.868 270.200 M196.500 270.687 C 197.105 270.778,198.095 270.778,198.700 270.687 C 199.305 270.595,198.810 270.520,197.600 270.520 C 196.390 270.520,195.895 270.595,196.500 270.687 M202.707 270.690 C 203.426 270.779,204.506 270.777,205.107 270.686 C 205.708 270.595,205.120 270.522,203.800 270.524 C 202.480 270.526,201.988 270.601,202.707 270.690 M101.651 273.400 C 101.564 274.498,103.575 281.759,103.881 281.452 C 103.995 281.338,103.805 280.290,103.459 279.122 C 103.112 277.955,102.571 276.100,102.256 275.000 C 101.941 273.900,101.669 273.180,101.651 273.400 M181.442 274.900 C 182.378 276.518,188.666 284.573,190.575 286.600 C 192.341 288.475,192.145 288.156,189.679 285.147 C 187.943 283.029,185.403 279.744,184.034 277.847 C 181.878 274.861,180.537 273.336,181.442 274.900 M104.030 282.400 C 104.033 282.730,104.291 283.540,104.602 284.200 L 105.167 285.400 104.930 284.200 C 104.632 282.698,104.021 281.475,104.030 282.400 M105.446 286.600 C 105.588 287.260,105.880 287.980,106.097 288.200 C 106.355 288.463,106.389 288.257,106.197 287.600 C 105.723 285.985,105.151 285.223,105.446 286.600 M106.618 289.700 C 106.768 290.195,107.055 290.776,107.256 290.991 C 107.457 291.206,107.419 290.801,107.172 290.091 C 106.665 288.638,106.197 288.308,106.618 289.700 M193.200 289.513 C 193.200 290.913,224.420 318.504,225.167 317.765 C 225.258 317.674,225.258 317.549,225.167 317.486 C 224.840 317.263,216.988 310.985,216.003 310.158 C 209.250 304.494,201.804 297.739,196.731 292.675 C 194.789 290.737,193.200 289.314,193.200 289.513 M107.818 292.500 C 107.968 292.995,108.255 293.576,108.456 293.791 C 108.657 294.006,108.619 293.601,108.372 292.891 C 107.865 291.438,107.397 291.108,107.818 292.500 M108.800 294.589 C 108.800 295.054,113.574 304.124,114.069 304.600 C 114.434 304.951,109.361 294.863,108.957 294.433 C 108.871 294.342,108.800 294.412,108.800 294.589 M116.124 308.200 C 116.462 308.860,117.038 309.760,117.404 310.200 C 117.770 310.640,117.665 310.280,117.170 309.400 C 116.080 307.458,115.264 306.522,116.124 308.200 M118.208 311.600 C 119.474 313.936,129.138 327.275,130.379 328.400 C 130.501 328.510,131.303 329.410,132.163 330.400 C 134.964 333.626,138.393 337.200,138.687 337.200 C 138.845 337.200,137.978 336.165,136.759 334.900 C 131.568 329.513,126.171 322.793,121.420 315.800 C 118.875 312.054,117.429 310.163,118.208 311.600 M225.612 318.282 C 225.618 318.457,226.723 319.399,228.068 320.375 C 230.974 322.486,239.031 329.102,243.100 332.720 C 244.695 334.138,246.000 335.096,246.000 334.849 C 246.000 334.602,245.865 334.398,245.700 334.396 C 245.535 334.393,244.680 333.706,243.800 332.868 C 239.685 328.950,225.588 317.645,225.612 318.282 M246.400 335.255 C 246.400 335.536,263.329 352.405,263.469 352.264 C 263.594 352.139,253.124 341.446,249.300 337.792 C 247.705 336.268,246.400 335.127,246.400 335.255 M139.599 338.598 C 140.114 339.148,140.609 339.525,140.697 339.436 C 140.932 339.201,139.488 337.600,139.041 337.600 C 138.832 337.600,139.083 338.049,139.599 338.598 M146.400 345.248 C 154.378 352.944,166.440 363.383,166.374 362.534 C 166.359 362.350,165.268 361.361,163.950 360.335 C 160.319 357.512,150.741 348.992,145.846 344.233 C 143.451 341.905,141.381 340.009,141.246 340.019 C 141.111 340.030,143.430 342.383,146.400 345.248 M266.486 356.250 C 270.530 361.038,271.993 362.600,270.044 360.047 C 267.339 356.506,264.221 352.849,263.886 352.824 C 263.713 352.811,264.883 354.353,266.486 356.250 M272.575 363.732 C 273.191 364.539,273.776 365.200,273.875 365.200 C 274.153 365.200,272.421 362.860,271.909 362.544 C 271.659 362.389,271.959 362.924,272.575 363.732 M166.825 363.066 C 166.838 363.250,168.827 364.930,171.244 366.800 C 173.661 368.670,175.951 370.470,176.333 370.800 C 176.715 371.130,178.191 372.378,179.613 373.572 C 181.036 374.767,182.515 376.010,182.900 376.334 C 183.285 376.659,183.600 376.818,183.600 376.687 C 183.600 376.439,174.122 368.483,169.500 364.852 C 168.015 363.686,166.811 362.882,166.825 363.066 M276.026 368.600 C 277.811 371.182,279.064 372.653,278.155 371.100 C 277.458 369.911,274.313 365.600,274.141 365.600 C 274.037 365.600,274.885 366.950,276.026 368.600 M279.207 373.429 C 281.539 377.246,282.400 378.533,282.400 378.202 C 282.400 377.656,279.250 372.478,278.718 372.149 C 278.459 371.989,278.679 372.565,279.207 373.429 M184.000 377.051 C 184.000 377.243,184.675 377.936,185.500 378.592 C 186.325 379.248,188.845 381.467,191.100 383.525 C 193.355 385.582,195.200 387.152,195.200 387.014 C 195.200 386.765,194.794 386.365,191.743 383.600 C 186.665 378.999,184.000 376.745,184.000 377.051 M195.600 387.228 C 195.600 387.346,197.490 389.332,199.800 391.642 C 202.110 393.952,204.000 395.739,204.000 395.614 C 204.000 395.488,202.110 393.502,199.800 391.200 C 197.490 388.898,195.600 387.110,195.600 387.228 " stroke="none" fill="#63838c" fill-rule="evenodd"></path><path id="path4" d="M199.577 10.490 C 200.774 11.750,201.839 12.695,201.943 12.590 C 202.048 12.486,202.055 12.355,201.958 12.300 C 201.862 12.245,200.797 11.300,199.592 10.200 L 197.400 8.200 199.577 10.490 M202.443 13.100 C 202.467 13.265,203.502 14.294,204.743 15.387 L 207.000 17.374 204.814 15.087 C 202.584 12.755,202.367 12.573,202.443 13.100 M207.200 17.363 C 207.200 17.617,210.015 20.230,214.100 23.770 C 215.805 25.247,217.200 26.341,217.200 26.202 C 217.200 26.062,216.615 25.465,215.900 24.874 C 215.185 24.283,212.935 22.305,210.900 20.479 C 208.865 18.652,207.200 17.250,207.200 17.363 M217.962 26.919 C 218.607 27.737,221.600 30.165,221.600 29.871 C 221.600 29.763,220.655 28.894,219.500 27.941 C 218.345 26.987,217.653 26.527,217.962 26.919 M121.412 28.800 C 122.099 30.052,125.632 35.200,125.804 35.200 C 126.033 35.200,122.091 29.134,121.514 28.600 C 121.212 28.320,121.181 28.380,121.412 28.800 M222.013 30.300 C 222.019 30.465,222.514 30.946,223.113 31.368 L 224.200 32.136 223.230 31.068 C 222.211 29.946,221.992 29.807,222.013 30.300 M226.521 33.871 C 226.680 34.130,227.567 34.940,228.490 35.671 C 229.414 36.402,230.039 36.788,229.879 36.529 C 229.720 36.270,228.833 35.460,227.910 34.729 C 226.986 33.998,226.361 33.612,226.521 33.871 M128.975 39.732 C 129.591 40.539,130.176 41.200,130.275 41.200 C 130.553 41.200,128.821 38.860,128.309 38.544 C 128.059 38.389,128.359 38.924,128.975 39.732 M236.654 42.068 C 238.362 43.426,241.738 46.254,244.156 48.353 C 246.574 50.452,248.422 51.959,248.263 51.701 C 247.616 50.655,234.431 39.600,233.830 39.600 C 233.674 39.600,234.945 40.711,236.654 42.068 M131.671 43.148 C 132.182 43.780,133.320 45.212,134.200 46.331 C 135.080 47.450,135.942 48.374,136.115 48.383 C 136.288 48.392,135.224 46.960,133.751 45.200 C 132.278 43.440,130.998 42.000,130.907 42.000 C 130.816 42.000,131.160 42.517,131.671 43.148 M139.861 52.659 C 143.880 57.041,156.407 69.200,156.903 69.200 C 157.082 69.200,156.008 68.086,154.515 66.725 C 151.353 63.842,141.455 53.951,138.679 50.900 C 137.628 49.745,136.668 48.800,136.545 48.800 C 136.423 48.800,137.915 50.536,139.861 52.659 M248.800 52.061 C 248.800 52.192,250.446 53.897,252.458 55.850 C 257.657 60.895,260.162 63.409,263.700 67.130 C 265.405 68.924,266.798 70.258,266.795 70.096 C 266.790 69.777,255.930 58.634,251.500 54.402 C 250.015 52.984,248.800 51.930,248.800 52.061 M157.600 69.730 C 157.600 69.848,159.535 71.609,161.900 73.644 C 167.674 78.614,167.600 78.553,167.600 78.315 C 167.600 78.200,166.025 76.766,164.100 75.128 C 162.175 73.491,159.925 71.559,159.100 70.834 C 158.275 70.110,157.600 69.613,157.600 69.730 M269.168 73.100 C 270.351 74.475,271.400 75.600,271.497 75.600 C 271.762 75.600,268.534 71.806,267.720 71.159 C 267.332 70.852,267.984 71.725,269.168 73.100 M275.477 81.100 C 279.432 86.405,280.276 87.432,279.011 85.400 C 277.947 83.692,272.484 76.499,272.044 76.227 C 271.841 76.102,273.386 78.294,275.477 81.100 M170.770 80.932 C 171.789 82.054,172.008 82.193,171.987 81.700 C 171.981 81.535,171.486 81.054,170.887 80.632 L 169.800 79.864 170.770 80.932 M174.124 83.477 C 174.460 84.021,177.600 86.555,177.600 86.282 C 177.600 86.180,176.753 85.403,175.719 84.555 C 174.684 83.707,173.966 83.222,174.124 83.477 M178.400 86.929 C 178.400 87.037,179.345 87.906,180.500 88.859 C 181.655 89.813,182.347 90.273,182.038 89.881 C 181.393 89.063,178.400 86.635,178.400 86.929 M280.585 88.300 C 281.202 89.235,281.783 90.000,281.876 90.000 C 282.164 90.000,280.633 87.566,280.032 87.069 C 279.720 86.811,279.968 87.365,280.585 88.300 M284.026 93.710 C 285.174 95.641,286.191 97.143,286.286 97.047 C 286.481 96.852,283.379 91.725,282.505 90.800 C 282.194 90.470,282.878 91.780,284.026 93.710 M185.222 92.700 C 185.234 92.865,185.819 93.438,186.522 93.974 L 187.800 94.949 186.625 93.674 C 185.403 92.349,185.185 92.197,185.222 92.700 M188.116 95.055 C 188.461 95.625,194.000 100.552,194.000 100.290 C 194.000 100.185,192.614 98.861,190.920 97.349 C 189.226 95.837,187.964 94.805,188.116 95.055 M287.000 98.800 C 287.341 99.460,287.711 100.000,287.821 100.000 C 287.931 100.000,287.741 99.460,287.400 98.800 C 287.059 98.140,286.689 97.600,286.579 97.600 C 286.469 97.600,286.659 98.140,287.000 98.800 M197.022 103.205 C 201.828 107.571,209.084 115.101,212.462 119.227 C 214.250 121.412,215.799 123.200,215.905 123.200 C 216.163 123.200,213.766 120.237,209.638 115.451 C 206.322 111.608,195.649 101.160,194.711 100.841 C 194.454 100.753,195.494 101.817,197.022 103.205 M289.800 104.000 C 290.357 105.100,290.903 106.000,291.013 106.000 C 291.123 106.000,290.757 105.100,290.200 104.000 C 289.643 102.900,289.097 102.000,288.987 102.000 C 288.877 102.000,289.243 102.900,289.800 104.000 M291.228 106.600 C 291.228 106.820,291.486 107.450,291.800 108.000 C 292.114 108.550,292.372 108.820,292.372 108.600 C 292.372 108.380,292.114 107.750,291.800 107.200 C 291.486 106.650,291.228 106.380,291.228 106.600 M293.002 110.600 C 293.374 111.480,293.861 112.704,294.085 113.320 C 294.309 113.937,294.574 114.359,294.674 114.259 C 294.889 114.044,293.235 109.979,292.698 109.400 C 292.493 109.180,292.630 109.720,293.002 110.600 M295.029 115.600 C 295.176 116.150,295.464 116.870,295.667 117.200 C 295.925 117.617,295.957 117.495,295.771 116.800 C 295.624 116.250,295.336 115.530,295.133 115.200 C 294.875 114.783,294.843 114.905,295.029 115.600 M296.248 119.000 C 296.391 119.660,296.666 120.470,296.859 120.800 C 297.084 121.184,297.118 120.968,296.952 120.200 C 296.809 119.540,296.534 118.730,296.341 118.400 C 296.116 118.016,296.082 118.232,296.248 119.000 M297.444 122.800 C 297.580 123.570,297.854 124.470,298.051 124.800 C 298.477 125.510,298.068 123.437,297.539 122.200 C 297.308 121.660,297.277 121.856,297.444 122.800 M119.730 124.700 C 128.711 124.760,143.291 124.760,152.130 124.700 C 160.968 124.640,153.620 124.591,135.800 124.591 C 117.980 124.591,110.748 124.640,119.730 124.700 M168.557 130.000 C 168.557 132.970,168.620 134.185,168.697 132.700 C 168.774 131.215,168.774 128.785,168.697 127.300 C 168.620 125.815,168.557 127.030,168.557 130.000 M218.800 127.600 C 219.696 128.920,220.520 130.000,220.630 130.000 C 220.740 130.000,220.096 128.920,219.200 127.600 C 218.304 126.280,217.480 125.200,217.370 125.200 C 217.260 125.200,217.904 126.280,218.800 127.600 M298.456 126.600 C 298.456 127.040,298.611 127.760,298.800 128.200 L 299.144 129.000 299.144 128.200 C 299.144 127.760,298.989 127.040,298.800 126.600 L 298.456 125.800 298.456 126.600 M221.782 132.134 C 222.341 133.088,222.679 133.988,222.533 134.134 C 222.386 134.280,222.477 134.400,222.733 134.400 C 222.990 134.400,223.200 134.281,223.200 134.135 C 223.200 133.744,221.200 130.400,220.966 130.400 C 220.856 130.400,221.224 131.180,221.782 132.134 M299.695 131.600 C 299.695 132.150,299.832 133.140,300.000 133.800 C 300.272 134.870,300.305 134.892,300.305 134.000 C 300.305 133.450,300.168 132.460,300.000 131.800 C 299.728 130.730,299.695 130.708,299.695 131.600 M196.313 132.295 C 197.476 132.376,199.276 132.376,200.313 132.293 C 201.351 132.211,200.400 132.145,198.200 132.146 C 196.000 132.147,195.151 132.214,196.313 132.295 M300.893 138.800 C 300.895 140.565,301.491 143.188,301.530 141.600 C 301.543 141.050,301.405 139.880,301.223 139.000 L 300.892 137.400 300.893 138.800 M301.693 145.600 C 301.693 146.370,301.775 146.685,301.876 146.300 C 301.976 145.915,301.976 145.285,301.876 144.900 C 301.775 144.515,301.693 144.830,301.693 145.600 M302.177 160.000 C 302.172 171.628,302.197 172.079,302.492 165.849 C 302.668 162.136,302.671 156.466,302.497 153.249 C 302.225 148.204,302.181 149.133,302.177 160.000 M102.851 164.833 C 102.879 167.785,103.035 172.180,103.199 174.600 C 103.382 177.313,103.419 175.320,103.296 169.400 C 103.186 164.120,103.029 159.725,102.948 159.633 C 102.867 159.542,102.823 161.882,102.851 164.833 M301.693 174.000 C 301.693 174.770,301.775 175.085,301.876 174.700 C 301.976 174.315,301.976 173.685,301.876 173.300 C 301.775 172.915,301.693 173.230,301.693 174.000 M300.990 179.738 C 300.839 180.952,300.795 182.182,300.893 182.472 C 300.990 182.762,301.201 181.856,301.360 180.458 C 301.519 179.060,301.563 177.830,301.458 177.724 C 301.352 177.619,301.142 178.525,300.990 179.738 M103.701 180.600 C 103.705 181.480,103.787 181.793,103.883 181.295 C 103.979 180.798,103.975 180.078,103.875 179.695 C 103.775 179.313,103.696 179.720,103.701 180.600 M104.277 186.575 C 104.405 188.101,104.655 189.811,104.834 190.375 C 105.216 191.582,104.868 187.837,104.371 185.400 C 104.143 184.282,104.115 184.636,104.277 186.575 M299.818 187.818 C 299.665 188.839,299.622 189.755,299.722 189.855 C 299.822 189.955,300.029 189.202,300.182 188.182 C 300.335 187.161,300.378 186.245,300.278 186.145 C 300.178 186.045,299.971 186.798,299.818 187.818 M298.622 193.822 C 298.472 194.625,298.438 195.372,298.548 195.482 C 298.658 195.592,298.872 195.025,299.022 194.222 C 299.173 193.419,299.206 192.673,299.096 192.563 C 298.986 192.453,298.773 193.019,298.622 193.822 M105.256 193.400 C 105.256 193.840,105.411 194.560,105.600 195.000 L 105.944 195.800 105.944 195.000 C 105.944 194.560,105.789 193.840,105.600 193.400 L 105.256 192.600 105.256 193.400 M297.450 198.850 C 297.117 200.517,297.440 200.840,297.800 199.200 C 297.952 198.509,297.993 197.859,297.891 197.758 C 297.789 197.656,297.591 198.147,297.450 198.850 M198.100 201.487 C 198.705 201.578,199.695 201.578,200.300 201.487 C 200.905 201.395,200.410 201.320,199.200 201.320 C 197.990 201.320,197.495 201.395,198.100 201.487 M296.440 202.640 C 296.210 203.473,296.094 204.227,296.182 204.315 C 296.270 204.403,296.530 203.793,296.760 202.960 C 296.990 202.127,297.106 201.373,297.018 201.285 C 296.930 201.197,296.670 201.807,296.440 202.640 M394.893 219.600 C 394.893 220.370,394.975 220.685,395.076 220.300 C 395.176 219.915,395.176 219.285,395.076 218.900 C 394.975 218.515,394.893 218.830,394.893 219.600 M392.800 233.400 C 392.800 233.730,392.980 234.000,393.200 234.000 C 393.420 234.000,393.600 233.730,393.600 233.400 C 393.600 233.070,393.420 232.800,393.200 232.800 C 392.980 232.800,392.800 233.070,392.800 233.400 M299.784 257.600 C 299.784 267.390,299.836 271.395,299.900 266.500 C 299.963 261.605,299.963 253.595,299.900 248.700 C 299.836 243.805,299.784 247.810,299.784 257.600 M227.623 267.636 C 224.934 268.163,224.737 268.392,227.200 268.130 C 229.219 267.915,231.600 267.172,230.000 267.256 C 229.670 267.273,228.600 267.444,227.623 267.636 M178.600 268.781 C 179.368 269.129,181.510 269.356,181.167 269.053 C 181.075 268.972,180.280 268.796,179.400 268.662 C 178.285 268.493,178.042 268.529,178.600 268.781 M221.200 268.800 C 220.138 269.024,220.041 269.102,220.800 269.124 C 221.350 269.141,222.520 269.005,223.400 268.823 C 224.734 268.547,224.800 268.493,223.800 268.499 C 223.140 268.502,221.970 268.638,221.200 268.800 M187.000 270.015 C 188.320 270.179,190.390 270.305,191.600 270.296 L 193.800 270.278 191.200 269.986 C 189.770 269.825,187.700 269.699,186.600 269.706 L 184.600 269.718 187.000 270.015 M210.400 270.000 L 208.200 270.270 210.200 270.291 C 211.300 270.303,213.280 270.179,214.600 270.015 L 217.000 269.718 214.800 269.724 C 213.590 269.728,211.610 269.852,210.400 270.000 " stroke="none" fill="#6ec4bb" fill-rule="evenodd"></path></g></svg>